<svg width="120" height="120" viewBox="0 0 120 120" fill="none" xmlns="http://www.w3.org/2000/svg">
<path d="M47.781 34.2743C48.3477 30.961 49.7677 28.281 52.041 26.2343C62.511 16.7943 77.851 29.8843 70.821 41.5843C68.561 45.331 65.2143 47.3643 60.781 47.6843C56.1143 48.0176 52.2544 45.8676 49.201 41.2343C49.0277 40.9676 48.801 40.9043 48.521 41.0443C41.3677 44.4976 36.5977 50.0376 34.211 57.6643C33.6243 59.531 32.3777 60.2443 30.471 59.8043L29.781 59.6443C29.4812 59.5762 29.1985 59.4474 28.9504 59.2658C28.7023 59.0842 28.4941 58.8537 28.3385 58.5886C28.183 58.3234 28.0834 58.0291 28.046 57.7239C28.0086 57.4188 28.0341 57.1092 28.121 56.8143C31.1477 46.6143 37.521 39.331 47.241 34.9643C47.541 34.831 47.721 34.601 47.781 34.2743Z" fill="#808080"/>
<path d="M86.2311 66.9444C86.8444 58.5911 84.2377 51.6077 78.4111 45.9944C73.9511 41.7044 78.7611 37.8144 82.0511 41.0344C89.7911 48.6077 93.1677 57.8444 92.1811 68.7444C92.1544 69.0777 92.2711 69.3477 92.5311 69.5544C95.7977 72.1011 97.5311 75.2611 97.7311 79.0344C98.2611 89.2144 87.5011 95.5844 78.7311 90.1444C76.3511 88.6644 74.7311 86.6911 73.8711 84.2244C71.0811 76.2144 76.4311 67.4144 85.5811 67.5344C85.7442 67.5374 85.9023 67.4781 86.0232 67.3684C86.144 67.2587 86.2184 67.1071 86.2311 66.9444Z" fill="#808080"/>
<path d="M44.6411 87.1245C51.3478 91.4512 58.6344 92.8112 66.5011 91.2045C66.8113 91.1418 67.1308 91.1411 67.4411 91.2025C67.7514 91.2638 68.0463 91.3859 68.3086 91.5617C68.571 91.7376 68.7955 91.9636 68.9694 92.2267C69.1432 92.4898 69.2627 92.7848 69.3211 93.0945L69.4311 93.6445C69.505 94.0319 69.5018 94.4301 69.4216 94.8163C69.3415 95.2025 69.186 95.5691 68.964 95.8951C68.742 96.2211 68.4579 96.5002 68.1279 96.7163C67.798 96.9324 67.4287 97.0813 67.0411 97.1545C57.2544 99.0212 48.3344 97.0978 40.2811 91.3845C40.0243 91.1982 39.7051 91.1193 39.3911 91.1645C37.9111 91.3645 36.3811 91.9845 35.0911 92.0245C27.3611 92.2945 21.9111 87.0145 22.0011 79.4145C22.1411 66.8245 38.6111 63.1245 44.9111 73.4245C47.4311 77.5445 47.2778 81.8278 44.4511 86.2745C44.2378 86.6212 44.3011 86.9045 44.6411 87.1245Z" fill="#808080"/>
</svg>
