<svg width="120" height="120" viewBox="0 0 120 120" fill="none" xmlns="http://www.w3.org/2000/svg">
<path d="M34.6699 59.4008C32.6766 58.8675 30.7066 58.6708 28.7599 58.8108C28.6639 58.8177 28.5676 58.8044 28.4768 58.7719C28.3861 58.7393 28.3029 58.6881 28.2325 58.6214C28.1622 58.5548 28.1061 58.4742 28.0678 58.3846C28.0295 58.295 28.0098 58.1984 28.0099 58.1008C27.9966 52.7208 27.9932 47.3908 27.9999 42.1108C28.0199 33.2008 29.3999 26.2908 37.5999 22.6808C40.0533 21.6008 44.0633 21.0475 49.6299 21.0208C54.3633 20.9875 59.2033 20.9942 64.1499 21.0408C64.6309 21.0435 65.0913 21.2374 65.4304 21.5803C65.7696 21.9233 65.9599 22.3872 65.9599 22.8708C65.9599 28.0208 65.3199 34.9908 66.9399 39.2708C70.6999 49.1708 81.5699 47.0208 89.8499 47.2408C90.2576 47.2512 90.6453 47.4198 90.9308 47.711C91.2164 48.0022 91.3775 48.393 91.3799 48.8008L91.4399 59.9708C91.4405 60.1763 91.3948 60.3792 91.3064 60.5645C91.2179 60.7497 91.089 60.9125 90.9292 61.0405C90.7695 61.1684 90.5831 61.2584 90.384 61.3035C90.185 61.3486 89.9784 61.3477 89.7799 61.3008C85.5999 60.3475 81.7266 60.9842 78.1599 63.2108C77.8532 63.4042 77.5366 63.4308 77.2099 63.2908C76.5433 63.0042 75.8899 62.5708 75.2499 61.9908C70.9999 58.1408 65.0199 57.4708 57.9499 56.4808C51.8433 55.6208 45.7566 56.7642 39.6899 59.9108C37.3899 61.0908 36.7299 59.9408 34.6699 59.4008Z" fill="#808080"/>
<path d="M73.2999 39.1108C70.3099 35.9208 71.0199 28.4208 71.2599 24.3208C71.2771 24.0191 71.3708 23.7267 71.5322 23.4713C71.6937 23.2158 71.9175 23.0056 72.1826 22.8606C72.4477 22.7155 72.7454 22.6403 73.0476 22.6421C73.3497 22.6439 73.6465 22.7226 73.9099 22.8708C74.2899 23.0908 74.8032 23.5575 75.4499 24.2708C79.7165 29.0175 84.1365 33.6141 88.7099 38.0608C89.3599 38.7008 89.6699 39.7108 89.5999 40.5408C89.5766 40.7736 89.4777 40.9921 89.3185 41.1622C89.1593 41.3322 88.9488 41.4442 88.7199 41.4808C84.3299 42.2108 76.5999 42.6308 73.2999 39.1108Z" fill="#808080"/>
<path d="M74.67 74.3806C79.96 71.1306 84.31 64.8906 91.12 69.2206C96.08 72.3706 96.66 78.6306 92.89 82.9506C83.51 93.7106 71.38 100.331 57.22 98.1806C48.1133 96.8006 41.4833 95.8672 37.33 95.3806C36.99 95.3406 36.6933 95.4406 36.44 95.6806C34.46 97.6406 32.0933 98.4772 29.34 98.1906C28.22 98.0806 26.66 98.3006 25.43 97.3706C25.1433 97.1572 25 96.8706 25 96.5106L25.01 68.8806C25.01 68.6346 25.059 68.3911 25.1542 68.1641C25.2494 67.9372 25.389 67.7312 25.5647 67.5582C25.7405 67.3853 25.949 67.2487 26.1782 67.1564C26.4074 67.0641 26.6527 67.0179 26.9 67.0206L33.41 67.0906C33.5848 67.0973 33.7511 67.1645 33.88 67.2806L36.43 69.5606C36.7233 69.8272 37.0267 69.8372 37.34 69.5906C46.13 62.6306 55.11 62.4606 65.81 64.9006C70.81 66.0406 73.5733 69.1072 74.1 74.1006C74.14 74.5006 74.33 74.5939 74.67 74.3806ZM58.5 77.9606C60.5067 77.6939 62.5233 77.5872 64.55 77.6406C68.62 77.7406 69.51 72.5106 65.78 71.2706C60.4933 69.5106 55.1533 69.1039 49.76 70.0506C45.48 70.8006 41.69 73.6806 38.11 76.1906C37.8367 76.3839 37.7 76.6439 37.7 76.9706V89.0106C37.6992 89.1033 37.7323 89.193 37.7931 89.263C37.8539 89.333 37.9381 89.3784 38.03 89.3906C45.1367 90.3106 52.0267 91.2639 58.7 92.2506C71.75 94.1806 80.02 87.5606 88.5 78.6906C89.0116 78.1534 89.3076 77.4468 89.3316 76.7054C89.3556 75.964 89.1058 75.2397 88.63 74.6706L88.29 74.2606C87.9105 73.8081 87.3677 73.5238 86.7797 73.4694C86.1916 73.4151 85.6059 73.5952 85.15 73.9706C76 81.5306 70.39 85.3306 58.69 83.6206C55.94 83.2206 55.8 80.0406 57.6 78.3906C57.8533 78.1506 58.1533 78.0072 58.5 77.9606Z" fill="#808080"/>
</svg>
