<svg width="273" height="281" viewBox="0 0 273 281" fill="none" xmlns="http://www.w3.org/2000/svg">
<path fill-rule="evenodd" clip-rule="evenodd" d="M131.445 1.40699C130.809 1.55899 129.825 2.07199 129.258 2.54799C128.691 3.02399 127.133 3.96699 125.796 4.64399C123.174 5.97199 118.763 10.699 117.654 13.369C117.362 14.071 116.591 15.379 115.939 16.275C115.15 17.361 114.551 18.813 114.144 20.623C113.809 22.118 112.969 24.594 112.279 26.126C111.488 27.881 110.706 30.563 110.166 33.377C109.694 35.833 108.895 38.857 108.391 40.098C107.887 41.339 107.052 43.821 106.536 45.615C106.02 47.408 105.117 49.634 104.529 50.561C103.941 51.489 103.123 53.258 102.712 54.493C102.284 55.78 101.518 57.168 100.918 57.743C100.342 58.294 99.506 59.747 99.06 60.971C98.614 62.194 97.877 63.702 97.422 64.321C96.966 64.94 96.105 66.275 95.508 67.287C93.583 70.552 88.268 77.048 84.413 80.848C79.145 86.042 77.898 87.178 77.199 87.428C76.818 87.563 75.432 88.387 74.119 89.257C72.623 90.249 70.514 91.209 68.471 91.827C66.678 92.369 64.77 93.037 64.232 93.312C63.184 93.847 60.587 92.395 58.714 90.226C57.393 88.697 56.119 87.511 54.003 85.841C52.867 84.944 51.166 83.525 50.222 82.688C45.632 78.615 37.338 76.846 21.37 76.535C7.98302 76.273 7.25302 76.384 4.08602 79.145C1.20402 81.658 1.17402 81.724 0.971019 85.947C0.706019 91.445 1.18102 92.994 3.99602 95.808C7.08402 98.896 7.07301 98.894 20.645 99.247C38.014 99.698 39.809 100.573 44.061 110.659L45.283 113.558L45.378 177.412L45.474 241.266L44.244 244.441C43.567 246.187 42.892 248.024 42.743 248.522C42.023 250.93 41.052 252.129 38.207 254.123C33.727 257.262 33.874 257.233 20.645 257.576C7.07101 257.927 6.96402 257.948 3.73802 260.953C0.959017 263.541 0.643019 264.648 0.984019 270.615C1.19102 274.253 1.13802 274.135 3.88702 277.154C6.58902 280.121 7.75302 280.395 17.565 280.378C30.36 280.356 34.079 279.995 39.486 278.249C46.568 275.962 47.209 275.705 48.433 274.664C49.055 274.135 50.418 273.132 51.464 272.435C54.48 270.423 57.42 268.095 57.42 267.718C57.42 267.528 58.195 266.57 59.141 265.59C60.088 264.611 61.351 263.232 61.949 262.527L63.036 261.245L65.391 261.592C66.989 261.828 68.387 262.332 69.739 263.16C70.835 263.831 72.984 264.899 74.515 265.533C76.046 266.166 77.493 266.919 77.731 267.206C77.969 267.493 79.651 268.195 81.47 268.765C83.288 269.336 85.765 270.222 86.975 270.734C88.184 271.246 90.875 272.095 92.953 272.621C95.031 273.146 97.589 274.066 98.637 274.665C100.094 275.496 101.577 275.919 104.929 276.456C107.341 276.843 110.07 277.475 110.994 277.86C115.934 279.917 118.759 280.044 159.413 280.036C197.925 280.028 204.737 279.784 209.394 278.242C210.6 277.843 213.597 277.109 216.054 276.61C218.511 276.112 221.282 275.363 222.213 274.945C223.144 274.527 225.047 273.775 226.442 273.272C227.837 272.77 230.12 271.736 231.514 270.974C232.909 270.213 234.973 269.246 236.101 268.825C237.229 268.404 238.37 267.796 238.637 267.475C238.904 267.153 240.019 266.231 241.116 265.426C242.212 264.62 243.272 263.76 243.471 263.514C243.67 263.268 245.138 262.091 246.732 260.899C251.329 257.461 253.673 254.905 257.512 249.145C258.06 248.322 258.988 247.152 259.573 246.545C260.158 245.938 260.97 244.66 261.378 243.704C261.786 242.747 262.594 241.276 263.173 240.433C263.753 239.591 264.718 237.683 265.318 236.194C265.918 234.704 266.818 232.507 267.317 231.312C267.817 230.116 268.493 227.507 268.82 225.514C269.147 223.522 269.964 220.261 270.635 218.268C273.813 208.83 273.496 167.697 270.119 151.239C269.546 148.449 268.899 144.56 268.68 142.597C268.461 140.633 267.872 137.861 267.371 136.437C266.869 135.013 265.974 132.357 265.381 130.535C264.623 128.206 263.873 126.701 262.854 125.469C262.058 124.505 261.406 123.539 261.406 123.322C261.406 123.105 260.864 122.287 260.201 121.504C259.538 120.72 258.33 119.101 257.515 117.906C255.653 115.172 251.694 111.298 249.071 109.644C247.967 108.948 246.836 108.105 246.559 107.771C246.282 107.437 245.393 106.828 244.582 106.418C243.772 106.007 242.457 105.208 241.659 104.642C238.434 102.354 228.187 99.5 220.995 98.888C218.411 98.668 214.83 98.335 213.036 98.149C211.243 97.962 204.698 97.807 198.493 97.803C184.873 97.796 184.303 97.539 185.334 91.873C185.521 90.847 186.083 86.746 186.583 82.761C187.083 78.775 187.657 74.536 187.859 73.341C188.521 69.417 188.709 62.411 188.27 58.015C186.933 44.606 185.569 37.181 183.913 34.286C183.297 33.21 182.461 31.252 182.054 29.935C181.647 28.618 180.933 27.085 180.468 26.527C180.002 25.97 179.08 24.536 178.418 23.341C177.755 22.145 176.758 20.635 176.201 19.984C175.643 19.334 174.951 18.356 174.662 17.81C174.184 16.908 171.954 14.853 167.022 10.771C166.025 9.94699 164.32 8.87799 163.232 8.39699C162.145 7.91599 160.72 7.05299 160.067 6.47899C158.977 5.52199 155.904 4.31899 154.55 4.31899C154.239 4.31899 152.842 3.75599 151.445 3.06899C147.728 1.23899 136.182 0.279991 131.445 1.40699ZM143.937 24.485C144.791 24.6 146.064 25.085 146.766 25.561C147.468 26.037 148.72 26.773 149.549 27.196C152.732 28.819 157.984 33.831 159.422 36.616C159.9 37.54 160.511 38.518 160.782 38.79C161.995 40.007 162.502 41.371 163.19 45.261C163.595 47.553 164.262 50.895 164.672 52.688C166.677 61.459 164.384 87.326 161.074 93.268C160.519 94.264 159.709 96.157 159.274 97.474C158.838 98.791 158.032 100.585 157.482 101.46C155.055 105.32 154.297 111.445 155.979 113.611C157.892 116.076 159.696 117.547 162.493 118.925L165.572 120.442L187.855 120.675C211.698 120.925 218.341 121.251 222.638 122.382C226.501 123.398 233.195 126.274 234.051 127.284C234.449 127.755 235.469 128.571 236.317 129.097C237.165 129.624 238.349 130.731 238.947 131.557C239.545 132.383 240.326 133.263 240.681 133.512C242.645 134.888 245.431 142.014 246.381 148.093C246.886 151.325 247.62 154.985 248.012 156.227C249.41 160.658 249.604 164.405 249.618 187.109C249.631 210.414 249.496 212.604 247.837 215.876C247.358 216.823 246.706 218.972 246.39 220.65C245.68 224.419 245.214 225.878 244.203 227.507C243.771 228.205 243.027 229.754 242.551 230.949C242.076 232.145 240.908 234.02 239.958 235.116C239.007 236.212 237.533 237.907 236.683 238.883C233.986 241.979 230.111 245.626 228.755 246.344C228.034 246.726 226.949 247.455 226.344 247.964C225.738 248.474 224.127 249.31 222.763 249.822C221.399 250.334 219.755 251.154 219.111 251.644C217.653 252.753 215.674 253.463 212.553 253.997C211.224 254.224 209.135 254.784 207.908 255.241C202.939 257.093 199.913 257.217 160.014 257.216C121.107 257.215 118.313 257.114 114.631 255.569C113.515 255.101 110.825 254.366 108.653 253.935C106.073 253.424 103.886 252.731 102.348 251.939C101.053 251.271 98.522 250.333 96.725 249.853C94.928 249.374 92.645 248.57 91.653 248.068C90.66 247.566 88.707 246.815 87.312 246.399C85.917 245.983 83.879 245.063 82.783 244.354C81.687 243.646 79.983 242.825 78.997 242.531C78.011 242.237 76.136 241.355 74.83 240.571C73.525 239.788 72.024 239.041 71.495 238.912C68.142 238.096 68.29 240.981 68.29 176.517C68.29 108.743 67.65 115.823 73.919 114.27C77.637 113.35 84.316 110.285 86.223 108.625C86.822 108.104 88.045 107.312 88.942 106.867C89.839 106.421 91.159 105.461 91.875 104.735C92.592 104.008 94.36 102.435 95.804 101.239C99.253 98.384 102.78 94.875 105.246 91.846C106.342 90.5 107.851 88.741 108.598 87.938C109.345 87.135 109.957 86.327 109.957 86.144C109.957 85.96 110.663 85.042 111.526 84.104C112.39 83.166 113.637 81.42 114.298 80.225C114.959 79.029 115.874 77.643 116.332 77.145C116.79 76.647 117.524 75.424 117.964 74.428C118.404 73.431 119.149 72.034 119.619 71.323C120.089 70.612 121.039 68.668 121.73 67.003C122.422 65.339 123.38 63.393 123.86 62.68C124.339 61.967 125.081 60.307 125.509 58.99C125.936 57.673 126.772 55.829 127.366 54.892C127.974 53.933 128.99 51.26 129.691 48.772C130.377 46.343 131.187 43.647 131.493 42.782C131.799 41.917 132.4 39.309 132.83 36.985C133.398 33.911 133.98 32.021 134.97 30.043C135.717 28.549 136.447 26.918 136.59 26.42C137.329 23.859 137.999 23.683 143.937 24.485Z" fill="#878787"/>
</svg>
