<svg width="57" height="57" viewBox="0 0 57 57" fill="none" xmlns="http://www.w3.org/2000/svg">
<path fill-rule="evenodd" clip-rule="evenodd" d="M28 18C21.9249 18 17 22.9249 17 29C17 31.7387 18.0009 34.2437 19.6569 36.1691L18.2779 37.548C17.9536 37.8724 17.9536 38.3982 18.2779 38.7224C18.6023 39.0468 19.1281 39.0468 19.4524 38.7224L20.8313 37.3435C22.7567 38.9993 25.2614 40 28 40C34.075 40 39 35.075 39 29C39 26.2615 37.9993 23.7567 36.3435 21.8313L37.7224 20.4523C38.0468 20.128 38.0468 19.6022 37.7224 19.2779C37.3982 18.9536 36.8724 18.9536 36.548 19.2779L35.1691 20.6569C33.2438 19.0009 30.7387 18 28 18ZM34.0496 21.7763C32.4128 20.4041 30.3029 19.5779 28 19.5779C22.7963 19.5779 18.5779 23.7963 18.5779 29C18.5779 31.3029 19.4041 33.413 20.7763 35.0496L34.0496 21.7763ZM21.9508 36.2241C23.5875 37.596 25.6973 38.4221 28 38.4221C33.2036 38.4221 37.4221 34.2037 37.4221 29C37.4221 26.6973 36.596 24.5875 35.2241 22.9508L21.9508 36.2241Z" fill="white"/>
</svg>
