<svg width="260" height="237" viewBox="0 0 260 237" fill="none" xmlns="http://www.w3.org/2000/svg">
<path fill-rule="evenodd" clip-rule="evenodd" d="M180.5 1.22099C162.419 2.69299 152.859 6.06999 139.603 15.667C128.66 23.588 126.565 31.896 134.229 36.972C138.765 39.977 141.793 39.181 150.667 32.654C160.258 25.6 166.166 23.143 176.657 21.847C198.734 19.119 216.253 26.586 229.727 44.467C238.663 56.326 241.897 74.965 237.657 90.173C234.779 100.496 232.705 104.37 225.795 112.333C221.28 117.537 191.1 147.389 188.333 149.388C164.725 166.448 135.684 163.71 114.833 142.46C109.279 136.8 107.011 135.174 104.172 134.82C97.9451 134.042 92.5731 139.726 93.7031 145.897C95.1151 153.606 111.245 168.451 123.873 173.664C152.001 185.275 177.428 182.436 200.964 165.056C209.54 158.724 237.601 130.552 244.794 121.053C265.928 93.142 264.481 52.774 241.415 26.833C225.235 8.637 203.2 -0.628005 180.5 1.22099ZM95.3331 57.848C81.0061 59.84 69.2041 65.012 56.3331 74.94C49.2501 80.403 20.4451 109.922 14.8571 117.443C-3.70191 142.423 -4.72291 177.375 12.3561 203.075C24.1481 220.82 42.7541 233.135 61.8331 235.822C82.8521 238.783 99.4331 235.732 114.746 226.088C129.984 216.49 134.018 208.859 127.299 202.339C122.483 197.664 118.979 198.251 109.333 205.346C96.6271 214.692 84.3351 218.034 68.8331 216.357C24.9051 211.605 4.88108 159.194 34.1851 125.667C38.6901 120.512 68.9261 90.626 71.6671 88.619C95.1801 71.397 124.001 74.276 145.612 96.004C149.199 99.61 151.367 101.522 152.538 102.109C160.463 106.088 168.702 98.671 165.724 90.239C163.034 82.623 147.247 68.883 135.833 64.225C121.973 58.567 107.052 56.218 95.3331 57.848Z" fill="#868686"/>
</svg>
