<svg width="120" height="120" viewBox="0 0 120 120" fill="none" xmlns="http://www.w3.org/2000/svg">
<path d="M56.5899 38.5093C56.3899 36.0093 56.0499 31.7393 59.4699 31.0993C64.4599 30.1793 63.8499 35.8793 63.7899 38.7293C63.7833 39.0893 63.9599 39.2893 64.3199 39.3293C80.6899 41.1893 92.5199 50.6893 93.4199 68.0493C93.4733 69.156 93.3533 70.1027 93.0599 70.8893C92.9333 71.2293 92.6899 71.436 92.3299 71.5093C91.6033 71.6427 90.8899 71.7093 90.1899 71.7093C70.1833 71.7027 50.1799 71.6993 30.1799 71.6993C27.5799 71.6927 26.4333 70.286 26.7399 67.4793C28.3733 52.4927 36.5499 43.4093 51.2699 40.2293C52.8366 39.8893 54.4466 39.5393 56.0999 39.1793C56.4599 39.106 56.6233 38.8827 56.5899 38.5093Z" fill="#808080"/>
<path d="M94.9 75.0693C95.357 75.0693 95.8095 75.1593 96.2317 75.3342C96.654 75.5091 97.0376 75.7655 97.3607 76.0886C97.6839 76.4118 97.9402 76.7954 98.1151 77.2176C98.29 77.6398 98.38 78.0923 98.38 78.5493V79.3593C98.38 82.0778 97.2664 84.6849 95.2841 86.6072C93.3019 88.5294 90.6133 89.6093 87.81 89.6093H32.57C31.1819 89.6093 29.8074 89.3442 28.525 88.8291C27.2426 88.314 26.0774 87.559 25.0959 86.6072C23.1136 84.6849 22 82.0778 22 79.3593V78.5493C22 77.6264 22.3666 76.7412 23.0193 76.0886C23.6719 75.436 24.557 75.0693 25.48 75.0693H94.9Z" fill="#808080"/>
</svg>
