<svg width="120" height="120" viewBox="0 0 120 120" fill="none" xmlns="http://www.w3.org/2000/svg">
<path d="M109.77 82.2C109.751 85.8699 109.01 89.5001 107.588 92.8833C106.167 96.2665 104.093 99.3365 101.486 101.918C98.8786 104.499 95.7887 106.542 92.3926 107.928C88.9964 109.315 85.3605 110.019 81.6925 110L37.7854 109.77C30.3776 109.731 23.2885 106.749 18.0778 101.481C12.8671 96.2126 9.96158 89.089 10.0004 81.6774L10.2298 37.8C10.249 34.1301 10.9905 30.4999 12.4119 27.1167C13.8333 23.7335 15.9069 20.6635 18.5141 18.0821C21.1214 15.5007 24.2113 13.4583 27.6074 12.0716C31.0036 10.685 34.6395 9.98116 38.3075 10.0004L82.2146 10.2305C89.6224 10.2693 96.7115 13.2508 101.922 18.5191C107.133 23.7874 110.038 30.911 110 38.3227L109.77 82.2ZM63.9872 33.8889C63.9879 33.4979 63.9116 33.1106 63.7627 32.7491C63.6137 32.3876 63.3951 32.0589 63.1193 31.782C62.8434 31.505 62.5157 31.2851 62.1549 31.1349C61.7941 30.9846 61.4073 30.9069 61.0165 30.9062L59.137 30.9031C58.7462 30.9024 58.3591 30.9787 57.9978 31.1277C57.6364 31.2767 57.308 31.4955 57.0312 31.7715C56.7544 32.0474 56.5346 32.3753 56.3844 32.7363C56.2342 33.0973 56.1565 33.4843 56.1559 33.8753L56.065 86.0589C56.0643 86.4499 56.1406 86.8372 56.2895 87.1987C56.4385 87.5602 56.6571 87.8888 56.9329 88.1658C57.2088 88.4428 57.5365 88.6627 57.8973 88.8129C58.2581 88.9632 58.6449 89.0409 59.0357 89.0416L60.9152 89.0447C61.306 89.0454 61.6931 88.969 62.0544 88.82C62.4158 88.6711 62.7442 88.4523 63.021 88.1763C63.2978 87.9003 63.5176 87.5725 63.6678 87.2115C63.818 86.8505 63.8957 86.4635 63.8963 86.0725L63.9872 33.8889ZM49.4776 43.7218C49.4758 42.7382 49.0837 41.7956 48.3873 41.1013C47.691 40.407 46.7475 40.0179 45.7645 40.0195L45.399 40.0201C44.9122 40.0209 44.4303 40.1176 43.9809 40.3048C43.5315 40.4919 43.1233 40.7658 42.7796 41.1108C42.436 41.4558 42.1637 41.8652 41.9781 42.3155C41.7926 42.7658 41.6976 43.2483 41.6985 43.7353L41.7554 76.226C41.7571 77.2096 42.1492 78.1522 42.8456 78.8465C43.5419 79.5408 44.4854 79.9299 45.4685 79.9282L45.8339 79.9277C46.3207 79.9269 46.8026 79.8301 47.252 79.643C47.7015 79.4558 48.1097 79.1819 48.4533 78.8369C48.7969 78.4919 49.0693 78.0826 49.2548 77.6323C49.4403 77.182 49.5353 76.6995 49.5345 76.2124L49.4776 43.7218ZM78.247 43.7808C78.247 42.7764 77.8482 41.8131 77.1383 41.1029C76.4285 40.3927 75.4657 39.9937 74.4618 39.9937H74.2008C73.7037 39.9937 73.2115 40.0916 72.7523 40.282C72.2931 40.4723 71.8758 40.7512 71.5243 41.1029C71.1728 41.4546 70.894 41.872 70.7038 42.3315C70.5136 42.791 70.4157 43.2835 70.4157 43.7808V76.1148C70.4157 77.1192 70.8144 78.0824 71.5243 78.7926C72.2342 79.5029 73.1969 79.9019 74.2008 79.9019H74.4618C75.4657 79.9019 76.4285 79.5029 77.1383 78.7926C77.8482 78.0824 78.247 77.1192 78.247 76.1148V43.7808ZM35.2008 53.7578C35.2008 52.795 34.8185 51.8716 34.138 51.1907C33.4576 50.5099 32.5346 50.1274 31.5723 50.1274H31.0502C30.5737 50.1274 30.1019 50.2213 29.6616 50.4038C29.2214 50.5862 28.8214 50.8536 28.4845 51.1907C28.1475 51.5279 27.8802 51.9281 27.6979 52.3685C27.5155 52.809 27.4217 53.2811 27.4217 53.7578V66.2422C27.4217 66.7189 27.5155 67.191 27.6979 67.6315C27.8802 68.0719 28.1475 68.4721 28.4845 68.8093C28.8214 69.1464 29.2214 69.4138 29.6616 69.5962C30.1019 69.7787 30.5737 69.8726 31.0502 69.8726H31.5723C32.5346 69.8726 33.4576 69.4901 34.138 68.8093C34.8185 68.1284 35.2008 67.205 35.2008 66.2422V53.7578ZM92.3695 53.6011C92.3695 52.6868 92.0064 51.8099 91.3602 51.1633C90.714 50.5168 89.8376 50.1535 88.9237 50.1535H88.1928C87.2789 50.1535 86.4024 50.5168 85.7562 51.1633C85.11 51.8099 84.747 52.6868 84.747 53.6011V66.3989C84.747 67.3132 85.11 68.1901 85.7562 68.8367C86.4024 69.4832 87.2789 69.8465 88.1928 69.8465H88.9237C89.8376 69.8465 90.714 69.4832 91.3602 68.8367C92.0064 68.1901 92.3695 67.3132 92.3695 66.3989V53.6011Z" fill="black"/>
</svg>
