<svg width="120" height="120" viewBox="0 0 120 120" fill="none" xmlns="http://www.w3.org/2000/svg">
<path d="M96.0263 77.7541C96.0542 83.0955 93.9592 88.2292 90.202 92.0259C86.4449 95.8225 81.3334 97.9712 75.992 97.9992L43.4325 98.1697C40.7877 98.1835 38.1661 97.6763 35.7173 96.677C33.2685 95.6777 31.0406 94.2058 29.1606 92.3455C27.2807 90.4851 25.7856 88.2727 24.7607 85.8345C23.7358 83.3963 23.2011 80.7802 23.1873 78.1354L23.0003 42.4159C22.9723 37.0745 25.0674 31.9408 28.8245 28.1441C32.5817 24.3474 37.6932 22.1987 43.0346 22.1708L75.5941 22.0003C78.2389 21.9864 80.8605 22.4936 83.3093 23.493C85.758 24.4923 87.986 25.9641 89.8659 27.8245C91.7459 29.6849 93.241 31.8973 94.2659 34.3355C95.2908 36.7736 95.8254 39.3898 95.8393 42.0346L96.0263 77.7541ZM49.3933 51.615C50.9133 51.8816 52.4133 51.815 53.8933 51.415C54.5435 51.2378 55.1006 50.8178 55.4489 50.2423C55.7971 49.6668 55.9097 48.9802 55.7633 48.325C55.1033 45.305 51.7533 45.805 49.4233 45.655C49.0833 45.635 48.9066 45.455 48.8933 45.115L48.7433 40.925C48.7318 40.6014 48.656 40.2833 48.5203 39.9891C48.3846 39.6949 48.1917 39.4304 47.9527 39.211C47.7137 38.9915 47.4334 38.8214 47.128 38.7105C46.8225 38.5997 46.4981 38.5502 46.1733 38.565C42.4433 38.745 43.2733 42.785 43.1333 45.225C43.1199 45.545 42.9533 45.7083 42.6333 45.715L38.8033 45.735C37.0233 45.7483 36.1433 46.645 36.1633 48.425L36.1733 49.475C36.1757 50.0376 36.3976 50.577 36.7916 50.9785C37.1857 51.38 37.7208 51.612 38.2833 51.625L42.6233 51.745C43.0033 51.7516 43.1933 51.945 43.1933 52.325V56.525C43.1925 56.8608 43.2628 57.1929 43.3996 57.4996C43.5363 57.8063 43.7364 58.0805 43.9867 58.3044C44.237 58.5282 44.5318 58.6966 44.8518 58.7983C45.1718 58.9001 45.5097 58.9331 45.8433 58.895L46.5233 58.815C47.159 58.7414 47.7456 58.4359 48.1715 57.9566C48.5974 57.4772 48.8329 56.8574 48.8333 56.215V52.075C48.8335 52.0067 48.8489 51.9394 48.8784 51.8777C48.9078 51.8159 48.9507 51.7613 49.004 51.7175C49.0573 51.6737 49.1197 51.6419 49.1869 51.6242C49.2542 51.6065 49.3246 51.6033 49.3933 51.615ZM80.0038 45.67C80.2643 45.4031 80.4696 45.0874 80.6081 44.7411C80.7466 44.3949 80.8156 44.0247 80.811 43.6518C80.8064 43.2788 80.7285 42.9104 80.5815 42.5676C80.4346 42.2249 80.2216 41.9144 79.9547 41.6539L79.8402 41.5422C79.5733 41.2817 79.2576 41.0763 78.9114 40.9378C78.5651 40.7993 78.1949 40.7304 77.822 40.735C77.449 40.7395 77.0806 40.8175 76.7379 40.9644C76.3951 41.1113 76.0846 41.3244 75.8241 41.5913L65.8228 51.84C65.5623 52.1069 65.3569 52.4225 65.2184 52.7688C65.0799 53.1151 65.011 53.4853 65.0156 53.8582C65.0201 54.2311 65.0981 54.5995 65.245 54.9423C65.3919 55.2851 65.6049 55.5956 65.8719 55.8561L65.9864 55.9678C66.2533 56.2283 66.5689 56.4336 66.9152 56.5721C67.2615 56.7106 67.6317 56.7796 68.0046 56.775C68.3775 56.7704 68.7459 56.6925 69.0887 56.5455C69.4315 56.3986 69.742 56.1856 70.0025 55.9187L80.0038 45.67ZM75.5833 78.245L78.5433 81.265C78.7966 81.5183 79.1033 81.6383 79.4633 81.625C81.7566 81.5383 82.9233 80.3516 82.9633 78.065C82.9631 77.7055 82.8231 77.361 82.5733 77.105L79.5733 74.015C79.4561 73.8939 79.3915 73.7314 79.3933 73.5629C79.3952 73.3944 79.4635 73.2335 79.5833 73.115L82.3433 70.335C82.5966 70.075 82.7633 69.7716 82.8433 69.425C83.3033 67.315 82.0033 65.135 79.8433 65.475C78.2933 65.715 76.7833 67.755 75.5833 68.875C75.2899 69.155 75.0133 69.1383 74.7533 68.825C73.1933 66.975 71.2333 64.195 68.4933 66.165C65.7633 68.125 68.9933 71.555 70.6733 73.185C70.771 73.2796 70.8286 73.4081 70.8342 73.544C70.8397 73.6799 70.7929 73.8127 70.7033 73.915C69.0133 75.895 65.6433 78.185 68.5333 81.075C68.7478 81.29 69.0027 81.4605 69.2832 81.5769C69.5638 81.6932 69.8645 81.7531 70.1683 81.7531C70.472 81.7531 70.7728 81.6932 71.0533 81.5769C71.3339 81.4605 71.5887 81.29 71.8033 81.075L74.6533 78.245C74.9666 77.9316 75.2766 77.9316 75.5833 78.245ZM57.7831 73.3279C57.7824 72.9457 57.7065 72.5675 57.5596 72.2147C57.4128 71.8619 57.1978 71.5414 56.9272 71.2717C56.6565 71.0019 56.3353 70.7882 55.982 70.6425C55.6287 70.4969 55.2501 70.4223 54.868 70.423L41.0681 70.447C40.6859 70.4476 40.3076 70.5236 39.9548 70.6704C39.602 70.8173 39.2816 71.0322 39.0118 71.3029C38.7421 71.5736 38.5283 71.8947 38.3826 72.2481C38.237 72.6014 38.1624 72.9799 38.1631 73.3621L38.1635 73.5621C38.1641 73.9442 38.2401 74.3225 38.3869 74.6753C38.5338 75.0281 38.7487 75.3485 39.0194 75.6183C39.2901 75.888 39.6113 76.1018 39.9646 76.2474C40.3179 76.393 40.6964 76.4677 41.0786 76.467L54.8785 76.443C55.2606 76.4423 55.6389 76.3664 55.9917 76.2195C56.3445 76.0727 56.665 75.8578 56.9347 75.5871C57.2045 75.3164 57.4183 74.9952 57.5639 74.6419C57.7095 74.2886 57.7841 73.91 57.7835 73.5279L57.7831 73.3279Z" fill="#808080"/>
</svg>
