<svg width="120" height="120" viewBox="0 0 120 120" fill="none" xmlns="http://www.w3.org/2000/svg">
<path d="M97.9872 73.8736C97.992 76.6038 97.459 79.3082 96.4186 81.8324C95.3782 84.3566 93.8508 86.6511 91.9237 88.585C89.9965 90.5189 87.7073 92.0543 85.1868 93.1035C82.6662 94.1527 79.9637 94.6952 77.2335 94.6999L42.8736 94.7598C40.1434 94.7646 37.4391 94.2316 34.9149 93.1912C32.3907 92.1508 30.0961 90.6234 28.1622 88.6963C26.2283 86.7691 24.693 84.4799 23.6438 81.9594C22.5946 79.4388 22.0521 76.7363 22.0473 74.0061L22 46.8862C21.9953 44.156 22.5283 41.4517 23.5687 38.9275C24.6091 36.4033 26.1364 34.1087 28.0636 32.1748C29.9908 30.2409 32.28 28.7056 34.8005 27.6564C37.321 26.6072 40.0235 26.0647 42.7537 26.0599L77.1136 26C79.8438 25.9953 82.5482 26.5283 85.0724 27.5687C87.5966 28.6091 89.8911 30.1364 91.825 32.0636C93.7589 33.9908 95.2943 36.28 96.3435 38.8005C97.3927 41.321 97.9352 44.0235 97.9399 46.7537L97.9872 73.8736ZM77.7136 58.0099L91.7036 46.5099C91.9303 46.3233 92.0036 46.0866 91.9236 45.7999L90.4536 40.2099C90.4446 40.1779 90.4277 40.1486 90.4045 40.1247C90.3813 40.1008 90.3525 40.0831 90.3207 40.0732C90.289 40.0632 90.2552 40.0614 90.2225 40.0678C90.1899 40.0742 90.1593 40.0887 90.1336 40.1099C82.4536 46.3766 74.817 52.5899 67.2236 58.7499C62.6103 62.4899 58.0036 62.5599 53.4036 58.9599C49.977 56.2799 42.3803 50.1999 30.6136 40.7199C30.4962 40.6257 30.3569 40.5625 30.2087 40.5361C30.0606 40.5097 29.9084 40.521 29.7665 40.5689C29.6246 40.6169 29.4976 40.6999 29.3974 40.8103C29.2972 40.9207 29.2271 41.0547 29.1936 41.1999L28.2736 45.0499C28.067 45.8966 28.3036 46.5933 28.9836 47.1399L42.4036 57.8599C42.4656 57.9101 42.5167 57.9723 42.5539 58.0428C42.5912 58.1132 42.6137 58.1905 42.6203 58.27C42.6268 58.3494 42.6172 58.4294 42.592 58.505C42.5668 58.5806 42.5265 58.6503 42.4736 58.7099L28.4336 73.9899C28.1603 74.2833 28.0736 74.6266 28.1736 75.0199L29.5236 80.3799C29.6836 81.0199 29.987 81.0966 30.4336 80.6099L47.2436 62.3599C47.477 62.1133 47.7203 62.0999 47.9736 62.3199C55.947 69.3399 64.0136 69.4233 72.1736 62.5699C72.447 62.3433 72.7036 62.3599 72.9436 62.6199L89.4436 80.4899C89.7103 80.7766 89.9436 80.7533 90.1436 80.4199C91.2436 78.6266 91.767 76.6666 91.7136 74.5399C91.707 74.2533 91.607 74.0033 91.4136 73.7899L77.6536 58.8799C77.367 58.5666 77.387 58.2766 77.7136 58.0099Z" fill="#808080"/>
</svg>
