<svg width="100" height="88" viewBox="0 0 100 88" fill="none" xmlns="http://www.w3.org/2000/svg">
<path d="M45.348 49.6473C44.6343 49.457 43.8437 49.1764 44.0268 48.6548C44.1886 48.1982 44.8757 48.0317 45.5947 48.0285C48.7677 48.0148 51.9415 48.0053 55.1163 48C56.1961 47.9984 57.9656 48.2616 57.1644 49.1796C56.923 49.4554 55.8777 49.698 55.1747 49.8534C51.8814 50.5816 48.6058 50.5129 45.348 49.6473Z" fill="white"/>
<path fill-rule="evenodd" clip-rule="evenodd" d="M39.1287 21.4751C24.217 21.4751 12.1287 33.5634 12.1287 48.4751V51.5048C12.1287 66.4165 24.217 78.5048 39.1287 78.5048H60.8712C75.7829 78.5048 87.8712 66.4165 87.8712 51.5048V48.4751C87.8712 33.5634 75.7829 21.4751 60.8712 21.4751H39.1287ZM31.7327 31.2772C25.8271 31.2772 21.0396 36.4636 21.0396 42.8614C21.0396 49.2591 25.8271 54.4455 31.7327 54.4455H69.1584C75.064 54.4455 79.8515 49.2591 79.8515 42.8614C79.8515 36.4636 75.064 31.2772 69.1584 31.2772H31.7327Z" fill="white"/>
<circle cx="34.4059" cy="42.8612" r="4.45545" fill="white"/>
<circle cx="67.3762" cy="42.8612" r="4.45545" fill="white"/>
<rect x="81" y="39" width="9.80198" height="21.3861" rx="4.90099" fill="white"/>
<path d="M47.54 13.6495C46.7775 11.3621 48.48 9 50.8911 9V9C53.3022 9 55.0047 11.3621 54.2423 13.6495L52.9182 17.6217C52.47 18.9662 52.47 20.4199 52.9182 21.7645L54.2423 25.7366C55.0047 28.024 53.3022 30.3861 50.8911 30.3861V30.3861C48.48 30.3861 46.7775 28.024 47.54 25.7367L48.864 21.7645C49.3122 20.4199 49.3122 18.9662 48.864 17.6217L47.54 13.6495Z" fill="white"/>
<rect x="9" y="38" width="9.80198" height="21.3861" rx="4.90099" fill="white"/>
</svg>
