<svg width="120" height="120" viewBox="0 0 120 120" fill="none" xmlns="http://www.w3.org/2000/svg">
<path d="M98.0411 77.308C98.0601 82.7608 95.9123 87.9979 92.07 91.867C88.2277 95.7362 83.0058 97.9206 77.553 97.9396L42.7532 98.0611C37.3004 98.0801 32.0634 95.9323 28.1942 92.09C24.325 88.2477 22.1407 83.0258 22.1216 77.573L22.0001 42.7532C21.9811 37.3004 24.129 32.0634 27.9712 28.1942C31.8135 24.325 37.0354 22.1407 42.4882 22.1216L77.288 22.0001C82.7408 21.9811 87.9779 24.129 91.847 27.9712C95.7162 31.8135 97.9006 37.0354 97.9196 42.4882L98.0411 77.308ZM58.1406 50.3706C57.054 53.4906 55.534 56.3806 53.5806 59.0406C53.5021 59.1462 53.3971 59.2292 53.2763 59.2814C53.1555 59.3336 53.0231 59.353 52.8923 59.3378C52.7616 59.3226 52.6372 59.2733 52.5316 59.1948C52.426 59.1163 52.3429 59.0114 52.2906 58.8906L49.7306 52.9306C49.5934 52.612 49.3931 52.3245 49.1419 52.0855C48.8907 51.8466 48.5938 51.6611 48.2693 51.5405C47.9448 51.4198 47.5994 51.3665 47.2541 51.3837C46.9088 51.4009 46.5708 51.4883 46.2606 51.6406L45.7006 51.9106C44.0673 52.704 43.6106 53.9373 44.3306 55.6106L47.7806 63.6606C47.8449 63.812 47.8474 63.9826 47.7876 64.1358C47.7278 64.289 47.6104 64.4128 47.4606 64.4806L39.9706 67.8206C39.4339 68.0619 39.0124 68.5029 38.7957 69.0501C38.5791 69.5973 38.5845 70.2073 38.8106 70.7506L39.0406 71.3106C39.7473 73.0306 40.984 73.5906 42.7506 72.9906C45.864 71.9373 48.7873 70.5273 51.5206 68.7606C51.8273 68.5606 52.0973 68.6006 52.3306 68.8806C55.6206 72.8706 60.3106 67.6606 57.0806 65.2706C56.9868 65.2024 56.9088 65.1148 56.8516 65.0136C56.7945 64.9124 56.7596 64.8 56.7492 64.6837C56.7388 64.5675 56.7531 64.45 56.7913 64.3392C56.8295 64.2283 56.8906 64.1266 56.9706 64.0406C60.6906 60.094 63.134 55.4506 64.3006 50.1106C64.3806 49.7173 64.6206 49.5206 65.0206 49.5206H68.8106C69.3827 49.5207 69.9316 49.2948 70.338 48.8921C70.7444 48.4895 70.9754 47.9427 70.9806 47.3706L70.9906 45.8206C70.9919 45.5204 70.9342 45.2228 70.8207 44.945C70.7072 44.6673 70.5402 44.4147 70.3293 44.2019C70.1184 43.9892 69.8677 43.8203 69.5916 43.7051C69.3156 43.5899 69.0196 43.5306 68.7206 43.5306L57.0006 43.5206C56.6873 43.5206 56.514 43.364 56.4806 43.0506C56.0306 39.0906 51.2306 39.3906 50.4806 43.1306C50.4273 43.3973 50.2673 43.5306 50.0006 43.5306L40.4706 43.5206C38.4373 43.5206 37.454 44.5373 37.5206 46.5706L37.5406 47.3106C37.5588 47.9014 37.8067 48.4621 38.232 48.8744C38.6574 49.2867 39.227 49.5184 39.8206 49.5206H57.5406C58.134 49.5273 58.334 49.8106 58.1406 50.3706ZM64.4706 75.7606C68.0573 76.5873 71.624 76.5473 75.1706 75.6406C75.3352 75.5962 75.5103 75.6133 75.6631 75.6888C75.8159 75.7643 75.9359 75.893 76.0006 76.0506L76.9406 78.3406C77.0775 78.6798 77.3109 78.9689 77.6106 79.1706C81.0906 81.5506 83.6706 77.8706 81.8806 74.4606C78.5873 68.2073 75.4373 62.1706 72.4306 56.3506C72.2373 55.9773 71.962 55.6525 71.6256 55.4006C71.2891 55.1487 70.9003 54.9764 70.4883 54.8965C70.0763 54.8166 69.6518 54.8312 69.2469 54.9393C68.842 55.0474 68.4672 55.2462 68.1506 55.5206C66.8006 56.6806 65.8806 58.9706 65.1406 60.3906C62.4873 65.4306 59.9406 70.524 57.5006 75.6706C55.9606 78.9206 60.1606 81.3806 62.4006 78.6006C62.9606 77.9006 63.4006 77.094 63.7206 76.1806C63.8473 75.814 64.0973 75.674 64.4706 75.7606Z" fill="#808080"/>
<path d="M70.2405 65.0607L72.5605 69.7707C72.7205 70.0907 72.6205 70.2573 72.2605 70.2707L67.8105 70.3807C67.706 70.3849 67.6022 70.3618 67.5095 70.3136C67.4167 70.2654 67.3381 70.1938 67.2815 70.1059C67.2249 70.018 67.1923 69.9168 67.1868 69.8124C67.1814 69.708 67.2033 69.604 67.2505 69.5107L69.5005 65.0207C69.7405 64.5407 69.9871 64.554 70.2405 65.0607Z" fill="#808080"/>
</svg>
