<svg width="120" height="120" viewBox="0 0 120 120" fill="none" xmlns="http://www.w3.org/2000/svg">
<path d="M109.768 82.4347C109.729 89.7839 106.776 96.8167 101.557 101.986C96.3388 107.156 89.2826 110.038 81.9409 110L37.5372 109.767C30.1955 109.728 23.1699 106.772 18.0057 101.548C12.8416 96.3243 9.96197 89.2609 10.0004 81.9118L10.2324 37.5653C10.2709 30.2161 13.2242 23.1833 18.4427 18.0139C23.6612 12.8445 30.7174 9.96193 38.0591 10.0004L82.4628 10.2331C89.8045 10.2717 96.8301 13.228 101.994 18.4518C107.158 23.6757 110.038 30.7391 110 38.0882L109.768 82.4347ZM102.2 37.3712C102.181 32.1295 100.084 27.1098 96.3683 23.4163C92.6527 19.7228 87.6236 17.658 82.3873 17.6763L37.2662 17.8342C32.0299 17.8524 27.0153 19.9522 23.3255 23.6715C19.6358 27.3908 17.5731 32.4251 17.5914 37.6668L17.7491 82.8338C17.7673 88.0755 19.865 93.0953 23.5805 96.7888C27.296 100.482 32.3252 102.547 37.5615 102.529L82.6825 102.371C87.9189 102.353 92.9335 100.253 96.6233 96.5335C100.313 92.8142 102.376 87.78 102.357 82.5383L102.2 37.3712Z" fill="black"/>
<path d="M60.4595 32H59.5405C57.5852 32 56 33.4848 56 35.3165V84.6836C56 86.5152 57.5852 88 59.5405 88H60.4595C62.4148 88 64 86.5152 64 84.6836V35.3165C64 33.4848 62.4148 32 60.4595 32Z" fill="black"/>
<path d="M46.046 40.261L45.8922 40.2613C43.896 40.2648 42.2807 41.8858 42.2841 43.882L42.3403 76.0782C42.3438 78.0743 43.9649 79.6897 45.961 79.6862L46.1148 79.686C48.111 79.6825 49.7264 78.0615 49.7229 76.0653L49.6667 43.8691C49.6632 41.8729 48.0422 40.2575 46.046 40.261Z" fill="black"/>
<path d="M74.2953 40.3134L74.0389 40.3125C72.1136 40.3057 70.5473 41.8611 70.5406 43.7865L70.4269 76.3414C70.4202 78.2668 71.9756 79.8331 73.901 79.8398L74.1573 79.8407C76.0827 79.8474 77.6489 78.292 77.6557 76.3667L77.7693 43.8117C77.776 41.8864 76.2206 40.3201 74.2953 40.3134Z" fill="black"/>
<path d="M28 60C28 65.5228 29.7909 70 32 70C34.2091 70 36 65.5228 36 60C36 54.4772 34.2091 50 32 50C29.7909 50 28 54.4772 28 60Z" fill="black"/>
<path d="M84.07 60.0993C84.0297 65.8611 85.8448 70.5449 88.1241 70.5608C90.4034 70.5768 92.2837 65.9188 92.3239 60.1569C92.3641 54.395 90.549 49.7112 88.2698 49.6953C85.9905 49.6794 84.1102 54.3374 84.07 60.0993Z" fill="black"/>
</svg>
