<svg width="260" height="250" viewBox="0 0 260 250" fill="none" xmlns="http://www.w3.org/2000/svg">
<path fill-rule="evenodd" clip-rule="evenodd" d="M110.983 0.613994C104.634 2.89799 101.15 10.766 104.357 15.577C109.364 23.085 118.351 23.692 123.721 16.885C126.524 13.332 126.68 8.252 124.073 5.444C123.54 4.87 122.772 3.87799 122.367 3.23999C120.663 0.558993 114.857 -0.781006 110.983 0.613994ZM199.6 4.973C170.92 5.227 172.906 5.011 169.276 8.272C166.423 10.834 166.529 9.35199 166.575 46.2C166.625 85.831 166.697 86.861 169.556 89.272C174.357 93.319 180.667 93.434 186.236 89.575C188.985 87.67 189 87.534 189 64.506C189 40.77 189.321 38.126 191.912 40.495C192.4 40.941 193.43 41.625 194.2 42.014C197.271 43.567 208.928 54.702 213 59.973C214.746 62.233 217.105 65.095 219.957 68.413C220.719 69.3 221.728 71.002 222.198 72.196C222.669 73.39 223.652 75.454 224.382 76.783C225.113 78.112 225.921 79.863 226.177 80.673C226.434 81.483 227.154 82.787 227.777 83.571C228.419 84.379 229.212 86.169 229.605 87.699C229.987 89.184 230.89 91.75 231.612 93.4C238.123 108.292 238.12 142.911 231.606 155.45C231.077 156.468 230.291 158.679 229.86 160.363C229.42 162.081 228.603 164.045 228.001 164.835C227.41 165.609 226.497 167.299 225.973 168.589C225.449 169.879 224.577 171.587 224.037 172.384C223.496 173.181 222.764 174.704 222.41 175.77C222.056 176.835 221.395 178.042 220.94 178.453C220.486 178.864 219.689 180.037 219.17 181.06C218.651 182.083 217.546 183.727 216.713 184.713C215.881 185.699 214.3 187.627 213.2 188.999C211.256 191.423 208.638 194.373 206.6 196.435C205.518 197.53 203.204 199.435 198.381 203.2C196.69 204.52 194.563 206.245 193.653 207.033C191.111 209.235 187.725 211.332 184.961 212.415C183.582 212.956 182.072 213.757 181.605 214.195C181.138 214.634 179.601 215.462 178.189 216.036C176.777 216.609 175.114 217.506 174.493 218.029C173.872 218.551 172.607 219.173 171.682 219.411C170.757 219.649 167.75 220.533 165 221.376C162.25 222.218 158.485 223.217 156.633 223.594C154.782 223.971 152.226 224.809 150.954 225.455C145.258 228.35 113.395 228.299 107 225.385C105.57 224.733 102.69 223.85 100.6 223.423C98.51 222.995 95.168 222.104 93.173 221.443C88.812 219.997 84.195 219.355 81.622 219.836C73.222 221.405 70.629 234.723 78.008 238.4C79.333 239.06 81.043 239.991 81.808 240.469C82.574 240.948 84.82 241.642 86.8 242.012C88.78 242.382 92.38 243.308 94.8 244.069C97.528 244.928 101.404 245.749 105 246.229C108.19 246.656 112.581 247.371 114.757 247.819C123.794 249.679 135.215 249.753 143 248.002C144.43 247.681 148.689 246.97 152.464 246.423C156.814 245.792 160.917 244.921 163.664 244.046C166.049 243.285 169.44 242.377 171.2 242.027C172.96 241.678 175.3 240.927 176.4 240.359C177.5 239.791 179.566 238.885 180.992 238.346C182.418 237.807 183.96 237.014 184.419 236.582C184.878 236.151 186.386 235.354 187.77 234.812C189.153 234.27 191.052 233.377 191.99 232.827C192.927 232.278 194.753 231.439 196.047 230.964C197.341 230.488 198.76 229.786 199.2 229.404C199.64 229.021 201.035 228.056 202.3 227.259C203.565 226.462 204.6 225.632 204.6 225.415C204.6 225.198 205.095 224.764 205.7 224.451C207.449 223.545 215.031 217.512 218.71 214.1C219.836 213.055 220.909 212.2 221.094 212.2C221.503 212.2 224.683 208.962 226.107 207.095C226.677 206.348 227.696 205.132 228.372 204.392C234.008 198.221 235.998 195.704 237.396 192.976C238.022 191.753 238.838 190.5 239.21 190.192C239.581 189.884 240.321 188.644 240.855 187.437C241.389 186.229 242.287 184.638 242.849 183.9C243.412 183.163 244.262 181.623 244.738 180.48C245.214 179.336 246.097 177.576 246.7 176.568C247.303 175.56 248.138 173.744 248.555 172.531C248.972 171.318 249.779 169.452 250.347 168.384C250.915 167.317 251.679 165.084 252.044 163.422C252.41 161.76 253.213 159.392 253.83 158.159C257.12 151.586 260 129.752 259.036 118.689C257.937 106.075 255.589 92.676 254.004 89.972C253.464 89.05 252.581 86.598 252.042 84.523C251.503 82.448 250.7 80.132 250.258 79.375C249.816 78.619 249.075 77.01 248.613 75.8C247.271 72.292 243.736 65.292 242.756 64.2C242.262 63.65 241.47 62.21 240.997 61C240.524 59.79 239.656 58.177 239.068 57.417C238.481 56.656 237.64 55.458 237.2 54.756C235.761 52.458 232.91 48.87 229.424 44.968C227.541 42.86 225.19 40.16 224.2 38.968C221.877 36.17 220.477 34.812 217.63 32.6C212.978 28.986 213.174 29.214 213.709 28.039C214.562 26.167 215.4 26.066 231.4 25.906L246.4 25.757L250.2 24.528C254.86 23.02 255.399 22.551 256.372 19.144C257.758 14.295 257.257 10.779 254.766 7.86799C251.769 4.36699 254.118 4.49 199.6 4.973ZM55.6 22.394C49.574 23.795 45.138 29.721 46.416 34.662C49.611 47.011 65.611 46.966 68.79 34.6C70.448 28.151 62.495 20.791 55.6 22.394ZM19.8 68.052C19.47 68.104 18.561 68.25 17.78 68.376C16.974 68.507 15.751 69.167 14.95 69.903C14.175 70.616 13.104 71.58 12.57 72.045C6.42499 77.401 7.617 84.692 15.4 89.358C21.487 93.007 32.416 85.924 31.228 79.101C30.214 73.279 24.106 67.374 19.8 68.052ZM7.233 127.814C-1.16 132.002 -2.03701 141.48 5.50099 146.525C6.38499 147.116 7.57799 147.914 8.15399 148.298C11.549 150.563 19.439 146.821 22.04 141.713C26.051 133.832 15.334 123.772 7.233 127.814ZM32.094 182.235C26.676 183.512 22.037 189.807 23.331 194.127C26.842 205.846 42.622 205.997 45.666 194.342C47.466 187.449 39.63 180.46 32.094 182.235Z" fill="#878787"/>
</svg>
