<svg width="120" height="120" viewBox="0 0 120 120" fill="none" xmlns="http://www.w3.org/2000/svg">
<path d="M42.0201 25.5802C41.3701 17.7702 49.1701 18.7502 47.9401 25.3402C47.8601 25.7868 48.0467 26.0102 48.5001 26.0102H71.0401C71.1341 26.0099 71.2269 25.9883 71.3113 25.9469C71.3958 25.9055 71.4697 25.8455 71.5275 25.7713C71.5854 25.6971 71.6255 25.6107 71.645 25.5187C71.6645 25.4267 71.6628 25.3314 71.6401 25.2402C70.9001 22.4102 72.4301 19.0102 75.7401 20.2702C77.1601 20.8168 77.8434 22.3502 77.7901 24.8702C77.7701 25.7968 78.2201 26.3168 79.1401 26.4302C86.8134 27.3768 91.8767 31.0302 94.3301 37.3902C95.4167 40.1835 95.9734 45.3368 96.0001 52.8502C96.0267 61.4035 96.0467 69.9602 96.0601 78.5202C96.0667 89.0935 91.9667 95.7702 83.7601 98.5502C80.9601 99.4968 75.5701 99.9802 67.5901 100C62.1567 100.014 56.7201 100.017 51.2801 100.01C43.8867 100.004 38.7634 99.4668 35.9101 98.4002C24.3601 94.0602 24.0501 84.0402 24.0301 72.0802C24.0167 65.9268 24.0067 59.7735 24.0001 53.6202C23.9934 45.6802 24.5267 40.3302 25.6001 37.5702C28.1001 31.1635 33.4167 27.3635 41.5501 26.1702C41.8901 26.1168 42.0467 25.9202 42.0201 25.5802ZM42.2601 36.7502L41.8901 32.6402C41.8634 32.3002 41.6801 32.1635 41.3401 32.2302C33.4534 33.7835 29.7234 38.6968 30.1501 46.9702C30.1701 47.3568 30.3734 47.5502 30.7601 47.5502L89.2101 47.4202C89.5967 47.4202 89.8001 47.2302 89.8201 46.8502C90.2134 39.3768 86.9334 34.5835 79.9801 32.4702C78.6934 32.0768 77.9634 32.5468 77.7901 33.8802L77.4801 36.2202C77.4401 36.5268 77.3134 36.7935 77.1001 37.0202C75.5934 38.6402 73.9534 38.7235 72.1801 37.2702C71.9267 37.0568 71.7867 36.7902 71.7601 36.4702L71.4401 32.4602C71.4134 32.1602 71.2501 32.0102 70.9501 32.0102H48.5201C48.1867 32.0102 48.0201 32.1735 48.0201 32.5002L48.0001 36.3202C48.0001 36.7202 47.8501 37.0502 47.5501 37.3102C46.2101 38.4835 44.6667 38.6235 42.9201 37.7302C42.5201 37.5235 42.3001 37.1968 42.2601 36.7502ZM63.2201 65.5402C63.2201 64.6809 62.8787 63.8568 62.2711 63.2492C61.6635 62.6415 60.8394 62.3002 59.9801 62.3002C59.1208 62.3002 58.2967 62.6415 57.689 63.2492C57.0814 63.8568 56.7401 64.6809 56.7401 65.5402C56.7401 66.3995 57.0814 67.2236 57.689 67.8312C58.2967 68.4388 59.1208 68.7802 59.9801 68.7802C60.8394 68.7802 61.6635 68.4388 62.2711 67.8312C62.8787 67.2236 63.2201 66.3995 63.2201 65.5402ZM76.9612 68.7231C77.7795 68.519 78.481 67.9891 78.9112 67.2498C79.3415 66.5105 79.4654 65.6224 79.2556 64.7809C79.1517 64.3642 78.969 63.9715 78.718 63.6252C78.4669 63.2789 78.1524 62.9858 77.7925 62.7626C77.4325 62.5394 77.0341 62.3905 76.62 62.3244C76.2059 62.2583 75.7842 62.2763 75.379 62.3773C74.5606 62.5813 73.8592 63.1113 73.4289 63.8506C72.9986 64.5899 72.8747 65.478 73.0846 66.3195C73.1884 66.7362 73.3711 67.1288 73.6222 67.4751C73.8732 67.8214 74.1877 68.1145 74.5477 68.3377C74.9076 68.5609 75.3061 68.7098 75.7202 68.776C76.1343 68.8421 76.556 68.8241 76.9612 68.7231ZM46.898 65.072C46.8583 64.7011 46.7461 64.3417 46.5675 64.0143C46.389 63.6868 46.1477 63.3977 45.8575 63.1635C45.5672 62.9293 45.2337 62.7546 44.8759 62.6493C44.5181 62.544 44.1431 62.5101 43.7723 62.5498L43.0563 62.6263C42.6854 62.6659 42.326 62.7782 41.9986 62.9567C41.6711 63.1353 41.382 63.3766 41.1478 63.6668C40.9136 63.9571 40.7389 64.2906 40.6336 64.6484C40.5283 65.0062 40.4945 65.3812 40.5342 65.7521L40.6022 66.3884C40.6418 66.7592 40.7541 67.1186 40.9326 67.4461C41.1111 67.7735 41.3524 68.0626 41.6426 68.2968C41.9329 68.531 42.2664 68.7058 42.6242 68.8111C42.982 68.9164 43.357 68.9502 43.7279 68.9106L44.4439 68.8341C44.8147 68.7944 45.1741 68.6822 45.5016 68.5036C45.829 68.3251 46.1181 68.0838 46.3523 67.7935C46.5865 67.5033 46.7612 67.1697 46.8665 66.8119C46.9718 66.4542 47.0056 66.0791 46.966 65.7083L46.898 65.072ZM46.9201 80.1102C46.9201 79.2535 46.5798 78.432 45.974 77.8262C45.3683 77.2205 44.5467 76.8802 43.6901 76.8802C42.8334 76.8802 42.0118 77.2205 41.4061 77.8262C40.8004 78.432 40.4601 79.2535 40.4601 80.1102C40.4601 80.9668 40.8004 81.7884 41.4061 82.3941C42.0118 82.9999 42.8334 83.3402 43.6901 83.3402C44.5467 83.3402 45.3683 82.9999 45.974 82.3941C46.5798 81.7884 46.9201 80.9668 46.9201 80.1102ZM63.2201 80.0702C63.2201 79.2082 62.8777 78.3816 62.2682 77.7721C61.6587 77.1626 60.832 76.8202 59.9701 76.8202C59.1081 76.8202 58.2815 77.1626 57.672 77.7721C57.0625 78.3816 56.7201 79.2082 56.7201 80.0702C56.7201 80.9321 57.0625 81.7588 57.672 82.3683C58.2815 82.9778 59.1081 83.3202 59.9701 83.3202C60.832 83.3202 61.6587 82.9778 62.2682 82.3683C62.8777 81.7588 63.2201 80.9321 63.2201 80.0702ZM79.3945 79.1567C79.313 78.7766 79.1574 78.4163 78.9367 78.0963C78.716 77.7764 78.4344 77.503 78.108 77.2919C77.7817 77.0807 77.4169 76.9359 77.0346 76.8658C76.6522 76.7956 76.2598 76.8014 75.8798 76.8829L75.3127 77.0045C74.9326 77.086 74.5723 77.2415 74.2523 77.4622C73.9323 77.683 73.659 77.9645 73.4478 78.2909C73.2367 78.6173 73.0919 78.982 73.0217 79.3644C72.9516 79.7467 72.9574 80.1391 73.0389 80.5192L73.1857 81.2037C73.2671 81.5838 73.4227 81.9441 73.6434 82.264C73.8641 82.584 74.1457 82.8574 74.4721 83.0685C74.7985 83.2796 75.1632 83.4244 75.5456 83.4946C75.9279 83.5648 76.3203 83.559 76.7004 83.4775L77.2675 83.3559C77.6475 83.2744 78.0079 83.1189 78.3278 82.8981C78.6478 82.6774 78.9211 82.3958 79.1323 82.0695C79.3434 81.7431 79.4882 81.3783 79.5584 80.996C79.6286 80.6137 79.6227 80.2213 79.5413 79.8412L79.3945 79.1567Z" fill="#010101"/>
</svg>
