<svg width="120" height="120" viewBox="0 0 120 120" fill="none" xmlns="http://www.w3.org/2000/svg">
<path d="M93.4412 65.94C91.7212 68.92 89.0212 70.8267 85.3412 71.66C85.226 71.687 85.1063 71.6877 84.9908 71.6622C84.8753 71.6367 84.767 71.5856 84.6739 71.5126C84.5808 71.4397 84.5053 71.3468 84.4529 71.2407C84.4005 71.1347 84.3726 71.0183 84.3712 70.9C84.2812 63.57 85.3912 53.25 83.1112 47.16C81.3912 42.5733 78.2345 39.3467 73.6412 37.48C71.4079 36.5733 68.1479 36.12 63.8612 36.12C56.4279 36.12 49.0179 36.12 41.6312 36.12C41.4472 36.1202 41.266 36.0746 41.104 35.9873C40.942 35.9001 40.8042 35.7739 40.703 35.6202C40.6019 35.4665 40.5405 35.29 40.5245 35.1067C40.5085 34.9234 40.5383 34.7389 40.6112 34.57C43.7012 27.35 48.9612 26.25 56.7812 26.15C64.7812 26.05 72.7845 26 80.7912 26C89.8179 26.0067 94.6579 30.4633 95.3112 39.37C95.5112 42.1033 95.4379 48.4 95.0912 58.26C94.9712 61.6867 94.4212 64.2467 93.4412 65.94Z" fill="#808080"/>
<path d="M52.8713 93.9097C49.1513 94.6297 46.9013 90.9597 44.5613 88.7997C40.7813 85.3197 37.0813 87.6397 32.8613 85.9997C27.5746 83.9531 24.6912 80.1664 24.2112 74.6397C23.9512 71.6864 23.9313 65.8564 24.1513 57.1497C24.3313 50.0897 25.3413 45.1497 31.5113 42.1697C33.1913 41.3564 35.6113 40.9364 38.7713 40.9097C47.7113 40.8364 56.6546 40.8464 65.6012 40.9397C68.7279 40.9731 71.1412 41.4431 72.8412 42.3497C78.2212 45.2397 79.6112 49.8297 79.7412 56.0697C79.8479 61.4031 79.8479 66.7297 79.7412 72.0497C79.6112 78.8097 77.5412 83.3897 71.3512 85.8797C66.7612 87.7297 63.0413 85.1897 58.9713 89.1997C57.5779 90.5664 56.4913 91.6364 55.7113 92.4097C54.9113 93.1897 53.9646 93.6897 52.8713 93.9097ZM46.3213 64.2897C46.3213 63.2421 45.9051 62.2374 45.1643 61.4967C44.4236 60.7559 43.4189 60.3397 42.3713 60.3397C41.3236 60.3397 40.3189 60.7559 39.5782 61.4967C38.8374 62.2374 38.4212 63.2421 38.4212 64.2897C38.4212 65.3373 38.8374 66.342 39.5782 67.0828C40.3189 67.8236 41.3236 68.2397 42.3713 68.2397C42.89 68.2397 43.4036 68.1376 43.8829 67.9391C44.3621 67.7405 44.7975 67.4496 45.1643 67.0828C45.5311 66.716 45.8221 66.2806 46.0206 65.8013C46.2191 65.3221 46.3213 64.8084 46.3213 64.2897ZM64.3213 64.2897C64.3213 63.771 64.2191 63.2574 64.0206 62.7781C63.8221 62.2989 63.5311 61.8634 63.1643 61.4967C62.7975 61.1299 62.3621 60.8389 61.8829 60.6404C61.4036 60.4419 60.89 60.3397 60.3713 60.3397C59.3236 60.3397 58.3189 60.7559 57.5782 61.4967C56.8374 62.2374 56.4212 63.2421 56.4212 64.2897C56.4212 65.3373 56.8374 66.342 57.5782 67.0828C58.3189 67.8236 59.3236 68.2397 60.3713 68.2397C60.89 68.2397 61.4036 68.1376 61.8829 67.9391C62.3621 67.7405 62.7975 67.4496 63.1643 67.0828C63.5311 66.716 63.8221 66.2806 64.0206 65.8013C64.2191 65.3221 64.3213 64.8084 64.3213 64.2897Z" fill="#808080"/>
</svg>
