<svg width="24" height="24" viewBox="0 0 24 24" fill="none" xmlns="http://www.w3.org/2000/svg">
<path d="M13.1039 4.17701L14.9319 7.82801C15.1109 8.18601 15.4559 8.43501 15.8569 8.49201L19.9449 9.08101C20.9549 9.22601 21.3569 10.451 20.6259 11.152L17.6699 13.992C17.3799 14.272 17.2469 14.673 17.3159 15.068L18.0139 19.078C18.1859 20.07 17.1299 20.827 16.2269 20.357L12.5729 18.463C12.2149 18.277 11.7859 18.277 11.4269 18.463L7.77293 20.357C6.86993 20.827 5.81393 20.07 5.98693 19.078L6.68393 15.068C6.75293 14.673 6.61993 14.272 6.32993 13.992L3.37393 11.152C2.64293 10.451 3.04493 9.22601 4.05493 9.08101L8.14293 8.49201C8.54393 8.43501 8.88993 8.18601 9.06893 7.82801L10.8959 4.17701C11.3479 3.27401 12.6519 3.27401 13.1039 4.17701Z" stroke="black" stroke-width="1.5" stroke-linecap="round" stroke-linejoin="round"/>
</svg>
