<svg width="120" height="120" viewBox="0 0 120 120" fill="none" xmlns="http://www.w3.org/2000/svg">
<path d="M61.5857 47.7016C63.1924 44.1483 64.9791 40.6816 66.9457 37.3016C69.5457 32.8516 73.6358 32.9016 75.9258 37.4416C77.5724 40.7083 79.2158 43.9716 80.8558 47.2316C81.0635 47.6442 81.3729 47.9967 81.7544 48.2557C82.136 48.5147 82.577 48.6717 83.0357 48.7116C86.0291 48.985 89.2024 49.385 92.5557 49.9116C95.9557 50.4516 98.8857 51.2216 98.5857 55.0516C98.5057 56.1116 97.9524 57.1616 96.9258 58.2016C94.2858 60.875 91.5691 63.5216 88.7757 66.1416C88.4475 66.4454 88.2005 66.8268 88.0573 67.2512C87.914 67.6757 87.8791 68.1296 87.9557 68.5716C88.5157 71.7716 89.0691 75.1316 89.6157 78.6516C90.4857 84.3016 87.7357 87.3916 82.2257 84.5416C78.9257 82.8283 75.7058 81.1783 72.5658 79.5916C72.2147 79.4144 71.8269 79.3213 71.433 79.3195C71.0391 79.3178 70.6498 79.4075 70.2957 79.5816C67.4091 80.9883 64.6024 82.415 61.8757 83.8616C48.8557 90.7716 53.6157 73.9816 54.7957 68.9316C54.8967 68.5013 54.8844 68.0517 54.76 67.626C54.6356 67.2004 54.4034 66.8131 54.0857 66.5016C51.5991 64.0883 49.0924 61.6516 46.5657 59.1916C42.0257 54.7616 44.1157 50.6016 49.9457 49.9916C53.6057 49.6116 57.2291 49.055 60.8157 48.3216C60.9852 48.2877 61.1438 48.2136 61.2779 48.1057C61.412 47.9977 61.5177 47.859 61.5857 47.7016Z" fill="#808080"/>
<path d="M46.6959 41.0414C42.2759 41.8681 39.2759 42.7214 37.6959 43.6014C35.5492 44.8014 33.3592 45.8147 31.1259 46.6414C30.8574 46.7416 30.5717 46.7875 30.2855 46.7761C29.9993 46.7648 29.7184 46.6966 29.4594 46.5755C29.2004 46.4543 28.9685 46.2828 28.7773 46.0708C28.586 45.8589 28.4394 45.6109 28.3459 45.3414L28.1959 44.9214C27.6159 43.2614 28.0826 41.9781 29.5959 41.0714C36.9759 36.6847 44.9792 34.5081 53.6059 34.5414C55.6126 34.5481 56.5392 35.5514 56.3859 37.5514L56.3359 38.1414C56.2914 38.7205 56.0435 39.2655 55.6357 39.6806C55.2279 40.0957 54.6862 40.3545 54.1059 40.4114C51.5259 40.6614 49.0459 40.6014 46.6959 41.0414Z" fill="#808080"/>
<path d="M33.5744 56.021L24.7295 58.8949C23.2221 59.3847 22.3971 61.0038 22.8869 62.5113L22.961 62.7395C23.4509 64.247 25.07 65.072 26.5775 64.5822L35.4223 61.7083C36.9298 61.2185 37.7547 59.5994 37.2649 58.0919L37.1908 57.8637C36.701 56.3562 35.0818 55.5312 33.5744 56.021Z" fill="#808080"/>
<path d="M31.0159 77.3417L30.7759 76.8517C30.6356 76.568 30.5542 76.2587 30.5369 75.9428C30.5196 75.6269 30.5667 75.311 30.6753 75.0143C30.7838 74.7177 30.9516 74.4465 31.1683 74.2174C31.3851 73.9883 31.6462 73.806 31.9359 73.6817C36.2426 71.8217 40.7259 70.9251 45.3859 70.9917C45.7776 70.9968 46.1643 71.0803 46.5232 71.2373C46.8821 71.3944 47.2058 71.6219 47.4752 71.9062C47.7447 72.1906 47.9544 72.5261 48.0919 72.8929C48.2294 73.2597 48.292 73.6503 48.2759 74.0417L48.2459 74.7417C48.2228 75.3219 47.9783 75.8709 47.5632 76.2749C47.148 76.6789 46.5939 76.907 46.0159 76.9117C42.2359 76.9517 38.5726 77.6284 35.0259 78.9417C34.2779 79.2168 33.4546 79.2055 32.7143 78.9101C31.9741 78.6148 31.3691 78.0562 31.0159 77.3417Z" fill="#808080"/>
</svg>
